<svg id="Nav" xmlns="http://www.w3.org/2000/svg" viewBox="0 0 195.72 22.33">
  <defs>
    <style>
      .cls-1 {
        fill: #f0423a;
      }
    </style>
  </defs>
  <title>DG_Logo_102816</title>
  <g>
    <path class="cls-1" d="M425.36,31a9.09,9.09,0,0,1,.93,4.54,10,10,0,0,1-.62,3.7,4,4,0,0,1-4,2.83h-3.74V29.39h3.74Q424.43,29.39,425.36,31Zm5,4.27A15.05,15.05,0,0,0,430,32a8.63,8.63,0,0,0-1.38-3.13,6.41,6.41,0,0,0-3.3-2.46,10.19,10.19,0,0,0-3-.42H414V45.41h8.36a7,7,0,0,0,6.5-3.62A12.88,12.88,0,0,0,430.4,35.24Z" transform="translate(-413.99 -25.5)"/>
    <path class="cls-1" d="M442.1,34.95a5.4,5.4,0,0,1,.88,3.32,5.43,5.43,0,0,1-.88,3.32,3.32,3.32,0,0,1-5.06,0,5.4,5.4,0,0,1-.89-3.32,5.37,5.37,0,0,1,.89-3.32A3.33,3.33,0,0,1,442.1,34.95Zm4.81,3.32a8.35,8.35,0,0,0-1.81-5.38,7.81,7.81,0,0,0-11,0,8.35,8.35,0,0,0-1.82,5.38,8.3,8.3,0,0,0,1.82,5.4,7.9,7.9,0,0,0,11,0A8.3,8.3,0,0,0,446.91,38.26Z" transform="translate(-413.99 -25.5)"/>
    <path class="cls-1" d="M462,45.41h-3.84V36.69a4,4,0,0,0-.3-1.74,2.11,2.11,0,0,0-2.09-1.11,2.59,2.59,0,0,0-2.6,1.62,5.59,5.59,0,0,0-.37,2.18v7.76h-3.75V31.1h3.63v2.09a6.34,6.34,0,0,1,1.36-1.59,4.72,4.72,0,0,1,2.92-.87,5.49,5.49,0,0,1,3.62,1.16A4.74,4.74,0,0,1,462,35.76v9.65Z" transform="translate(-413.99 -25.5)"/>
    <path class="cls-1" d="M473.93,34.95a5.4,5.4,0,0,1,.88,3.32,5.43,5.43,0,0,1-.88,3.32,3.32,3.32,0,0,1-5.06,0,5.4,5.4,0,0,1-.89-3.32,5.37,5.37,0,0,1,.89-3.32A3.33,3.33,0,0,1,473.93,34.95Zm4.81,3.32a8.35,8.35,0,0,0-1.81-5.38,7.81,7.81,0,0,0-11,0,8.35,8.35,0,0,0-1.82,5.38,8.3,8.3,0,0,0,1.82,5.4,7.9,7.9,0,0,0,11,0A8.3,8.3,0,0,0,478.74,38.26Z" transform="translate(-413.99 -25.5)"/>
    <polygon class="cls-1" points="74.58 19.91 70.63 19.91 65.49 5.57 69.69 5.57 72.68 16.15 75.73 5.57 79.76 5.57 74.58 19.91"/>
    <path class="cls-1" d="M502.58,38.8a4.14,4.14,0,0,0,.73-0.36v1.39a3,3,0,0,1-1.08,2.59,3.91,3.91,0,0,1-2.26.71,2.06,2.06,0,0,1-1.32-.43,1.66,1.66,0,0,1-.54-1.39,1.71,1.71,0,0,1,.89-1.59,5.6,5.6,0,0,1,1.72-.51l0.85-.16A6.16,6.16,0,0,0,502.58,38.8Zm5.26,6.06a1.34,1.34,0,0,1-.55-0.43,2.08,2.08,0,0,1-.22-1c0-.65,0-1.2,0-1.66V35.19a3.58,3.58,0,0,0-1.84-3.52,9.14,9.14,0,0,0-4.2-.93q-3.63,0-5.13,1.89a5.48,5.48,0,0,0-1.06,3.09h3.62A2.72,2.72,0,0,1,499,34.4a2.39,2.39,0,0,1,1.91-.66,3.92,3.92,0,0,1,1.82.34,1.26,1.26,0,0,1,.62,1.22,1.13,1.13,0,0,1-.81,1.07,5.91,5.91,0,0,1-1.5.33l-1.29.16a9.17,9.17,0,0,0-3.31.92,4.08,4.08,0,0,0-2.05,3.83,4,4,0,0,0,1.28,3.15,4.74,4.74,0,0,0,3.23,1.11,5.44,5.44,0,0,0,2.75-.7,7.74,7.74,0,0,0,1.8-1.43q0,0.49.11,0.87a4.15,4.15,0,0,0,.24.82h4.08V44.86Z" transform="translate(-413.99 -25.5)"/>
    <path class="cls-1" d="M523.28,45.41h-3.84V36.69a4,4,0,0,0-.3-1.74,2.11,2.11,0,0,0-2.09-1.11,2.59,2.59,0,0,0-2.6,1.62,5.59,5.59,0,0,0-.37,2.18v7.76h-3.75V31.1H514v2.09a6.41,6.41,0,0,1,1.36-1.59,4.73,4.73,0,0,1,2.92-.87,5.49,5.49,0,0,1,3.62,1.16,4.74,4.74,0,0,1,1.41,3.86v9.65Z" transform="translate(-413.99 -25.5)"/>
    <polygon class="cls-1" points="113 22.33 111.49 22.33 117.82 0 119.33 0 113 22.33"/>
    <path class="cls-1" d="M552.19,45.41H549.5L549.09,43a9.26,9.26,0,0,1-2.1,1.94,7.43,7.43,0,0,1-3.94,1,8.19,8.19,0,0,1-6.31-2.67,10.16,10.16,0,0,1-2.57-7.34,10.75,10.75,0,0,1,2.59-7.55,8.83,8.83,0,0,1,6.85-2.84,9,9,0,0,1,5.94,1.87,7,7,0,0,1,2.57,4.68h-4a3.79,3.79,0,0,0-2.25-2.78,5.5,5.5,0,0,0-2.22-.43,4.83,4.83,0,0,0-3.85,1.77,8,8,0,0,0-1.51,5.31q0,3.57,1.63,5.05a5.37,5.37,0,0,0,3.71,1.48A4.81,4.81,0,0,0,547,41.31a5.06,5.06,0,0,0,1.61-3.07h-4.48V35h8.08v10.4Z" transform="translate(-413.99 -25.5)"/>
    <path class="cls-1" d="M564,34.6l-0.63-.05H563a3.11,3.11,0,0,0-3,1.47,5.76,5.76,0,0,0-.43,2.55v6.85h-3.78V31.07h3.58v2.5a7.92,7.92,0,0,1,1.51-2,4.12,4.12,0,0,1,2.74-.88h0.18l0.32,0V34.6Z" transform="translate(-413.99 -25.5)"/>
    <path class="cls-1" d="M574.43,34.56a3.13,3.13,0,0,1,1,2.27H569a3.89,3.89,0,0,1,1-2.22,3,3,0,0,1,2.24-.82A3.28,3.28,0,0,1,574.43,34.56Zm4.77,1.89a7.05,7.05,0,0,0-1.14-3,5.84,5.84,0,0,0-2.48-2.12,8.17,8.17,0,0,0-3.37-.67,6.92,6.92,0,0,0-5.13,2,7.77,7.77,0,0,0-2,5.71q0,4,2.19,5.74a7.82,7.82,0,0,0,5.05,1.76,7,7,0,0,0,5.39-2.09,4.67,4.67,0,0,0,1.39-2.59H575.3a2.92,2.92,0,0,1-2.85,1.64,3.8,3.8,0,0,1-2.07-.54,3.43,3.43,0,0,1-1.5-3h10.44A18.36,18.36,0,0,0,579.2,36.45Z" transform="translate(-413.99 -25.5)"/>
    <path class="cls-1" d="M589.95,34.56a3.13,3.13,0,0,1,1,2.27h-6.46a3.89,3.89,0,0,1,1-2.22,3,3,0,0,1,2.24-.82A3.28,3.28,0,0,1,589.95,34.56Zm4.77,1.89a7.05,7.05,0,0,0-1.14-3,5.84,5.84,0,0,0-2.48-2.12,8.17,8.17,0,0,0-3.37-.67,6.92,6.92,0,0,0-5.13,2,7.77,7.77,0,0,0-2,5.71q0,4,2.19,5.74a7.82,7.82,0,0,0,5.05,1.76,7,7,0,0,0,5.39-2.09,4.68,4.68,0,0,0,1.39-2.59h-3.83A2.92,2.92,0,0,1,588,42.86a3.8,3.8,0,0,1-2.07-.54,3.43,3.43,0,0,1-1.5-3h10.44A18.34,18.34,0,0,0,594.72,36.45Z" transform="translate(-413.99 -25.5)"/>
    <path class="cls-1" d="M609.71,45.41h-3.84V36.69a4,4,0,0,0-.3-1.74,2.11,2.11,0,0,0-2.09-1.11,2.59,2.59,0,0,0-2.6,1.62,5.59,5.59,0,0,0-.37,2.18v7.76h-3.75V31.1h3.63v2.09a6.35,6.35,0,0,1,1.36-1.59,4.72,4.72,0,0,1,2.92-.87,5.5,5.5,0,0,1,3.62,1.16,4.75,4.75,0,0,1,1.41,3.86v9.65Z" transform="translate(-413.99 -25.5)"/>
  </g>
</svg>
